<svg version="1.1" id="Layer_1" xmlns="http://www.w3.org/2000/svg" xmlns:xlink="http://www.w3.org/1999/xlink" x="0px" y="0px" viewBox="0 0 122.88 84.93" style="enable-background:new 0 0 122.88 84.93" xml:space="preserve"><g><path fill="#a82c2c" d="M43.75,52.91c-1.6-0.3-3.23-0.26-4.78,0.08c-6.37,1.42-10.25,7.58-8.48,13.92c0.58,2.07,1.72,4.02,3.33,5.63 c-3.52-0.95-6.58-2.24-10.7-4.87c-7.2-4.59-12.06-10.49-14.75-16.8c-2.06-4.85-2.85-9.95-2.43-14.92 c0.41-4.97,2.02-9.79,4.74-14.05c3.4-5.34,8.56-9.83,15.33-12.71c3.9-1.66,8.71-2.67,13.66-3.11C45.16,5.59,50.8,5.8,55.56,6.6 c2.45,0.41,4.49,1.3,5.95,2.63c1.28,1.18,2.14,2.76,2.4,4.73c0.96,7.19,0,14.78,0.52,22.04c0.23,3.16,0.39,5.48-2.9,5.85 c-1.2,0.13-2.3,0.08-3.29-0.14c-2.21-0.47-3.96-1.77-5.24-3.51c-1.37-1.88-2.21-4.29-2.49-6.8c-0.19-1.7-0.12-3.44,0.21-5.08 c0.42-1.52-0.46-3.1-1.98-3.56c-6.88-2.07-1.14,13.28-13.96,13.64c-0.37,0.01-0.74,0.02-0.98,0.03c-1.61,0.05-2.87,1.4-2.82,3 c0.05,1.61,1.39,2.87,3,2.82c0.43-0.01,0.7-0.02,0.95-0.03c5.63-0.16,8.61-0.24,11.25-4.39c0.56,1.35,1.26,2.63,2.11,3.8 c0.35,0.48,0.72,0.92,1.12,1.32c-1.47,0.81-2.77,1.94-3.76,3.37c-0.09,0.12-0.17,0.25-0.26,0.38 C44.19,48.64,43.66,50.78,43.75,52.91L43.75,52.91z M42.98,78.93l5.85,3.89c4.54,3.01,9.23,2.52,12.71,0.21 c1.33-0.88,2.47-2.03,3.36-3.36c0.89-1.33,1.51-2.84,1.79-4.43c0.12-0.67,0.18-1.35,0.17-2.04c1.22,0.15,2.45,0.1,3.63-0.14 c2.8-0.56,5.38-2.14,7.07-4.57c0.09-0.13,0.17-0.25,0.26-0.38c1.68-2.64,2.05-5.69,1.33-8.54c-0.16-0.61-0.36-1.21-0.62-1.8 c2.03,0.44,4.08,0.39,5.99-0.11c3.06-0.79,5.75-2.73,7.35-5.66c1.61-2.94,1.79-6.28,0.81-9.3c-0.97-2.96-3.08-5.63-6.09-7.28 c-6.22-3.4-7.06-3.76-7.89-4.12c-0.62-0.27-1.24-0.53-4.94-2.53l36.53-0.04v0.01l0,0v-0.01c3.44,0,6.56-1.33,8.83-3.47 c5.01-4.72,5.01-12.39-0.01-17.11c-2.28-2.14-5.41-3.46-8.84-3.45V4.69l0,0V4.7L67.64,4.74l0-0.01c-0.67,0-1.29,0.23-1.79,0.61 c-0.14-0.14-0.28-0.27-0.42-0.4c-2.31-2.12-5.38-3.49-8.91-4.09c-5.19-0.87-11.35-1.11-17.36-0.57C33.63,0.78,28.2,1.93,23.73,3.83 C15.84,7.18,9.8,12.47,5.78,18.77c-3.25,5.09-5.16,10.81-5.65,16.69c-0.49,5.88,0.44,11.94,2.89,17.69 C6.14,60.49,11.74,67.3,20,72.58c7.6,4.85,11.82,5.67,20.06,7.27l0.17,0.04C41.29,80.09,42.32,79.69,42.98,78.93L42.98,78.93z M47.28,60.87c0.58,0.6,1.24,1.16,1.95,1.66l11.07,7.72c0.88,1.33,1.12,2.74,0.89,4.03c-0.15,0.82-0.47,1.61-0.94,2.31 c-0.47,0.7-1.08,1.32-1.78,1.79c-1.75,1.16-4.16,1.38-6.55-0.21l-12.94-8.6c-1.58-1.05-2.66-2.54-3.11-4.15 c-0.9-3.24,1.06-6.27,4.31-6.99c1.49-0.33,3.11-0.12,4.53,0.73c0.11,0.07,0.18,0.12,0.22,0.14L47.28,60.87L47.28,60.87z M60.95,63.25l-10.02-6.66c-0.69-0.82-1.17-1.75-1.41-2.72c-0.36-1.42-0.2-2.91,0.61-4.17c0.04-0.06,0.08-0.12,0.12-0.19 c0.84-1.2,2.14-1.99,3.58-2.28c1.45-0.29,3.02-0.06,4.36,0.79c0.07,0.05,0.14,0.09,0.21,0.14l12.44,8.68 c1.5,1.05,2.51,2.53,2.91,4.09c0.36,1.42,0.2,2.92-0.61,4.17c-0.04,0.07-0.08,0.13-0.12,0.19c-0.84,1.2-2.14,1.99-3.58,2.28 c-1.45,0.29-3.02,0.06-4.36-0.79c-0.07-0.05-0.14-0.09-0.21-0.14l-0.53-0.37C63.45,65.2,62.34,64.17,60.95,63.25L60.95,63.25z M87.14,44.5c0.51,1.56,0.42,3.25-0.37,4.71c-0.79,1.44-2.14,2.4-3.7,2.81c-1.67,0.43-3.55,0.24-5.27-0.65l-9.96-5.21 c1.33-0.99,2.44-2.22,3.3-3.71c1.18-2.03,1.86-4.49,1.98-7.43c2.17,1.15,2.74,1.4,3.3,1.63c0.74,0.31,1.47,0.63,7.39,3.87 C85.46,41.43,86.61,42.88,87.14,44.5L87.14,44.5z M115.13,21.02c-1.24,1.17-2.95,1.89-4.84,1.9V22.9l0,0v0.01l-39.72,0.04 l-0.01-12.4l39.72-0.04v0.01l0,0v-0.01c1.89,0,3.61,0.72,4.85,1.88C117.68,14.81,117.7,18.6,115.13,21.02L115.13,21.02z"/></g></svg>